<svg preserveAspectRatio="none" width="100%" height="100%" overflow="visible" style="display: block;" viewBox="0 0 116.909 33" fill="none" xmlns="http://www.w3.org/2000/svg">
<g id="Skippr">
<path d="M10.5708 1.5025C12.7486 1.5025 14.6327 1.91782 16.2232 2.74847C17.8137 3.55469 19.1596 4.7518 20.2607 6.33981L17.618 8.8684C16.6881 7.45141 15.636 6.43753 14.4614 5.82676C13.3114 5.19156 11.9411 4.87396 10.3506 4.87396C9.17604 4.87396 8.20949 5.03276 7.45094 5.35036C6.69239 5.66796 6.12959 6.0955 5.76255 6.63298C5.41998 7.14603 5.24869 7.73237 5.24869 8.392C5.24869 9.14936 5.50562 9.80899 6.01948 10.3709C6.55781 10.9328 7.54882 11.3726 8.99251 11.6902L13.9109 12.7896C16.2599 13.3026 17.9239 14.0844 18.9026 15.1349C19.8814 16.1854 20.3708 17.5169 20.3708 19.1294C20.3708 20.6197 19.9671 21.9145 19.1596 23.0139C18.3521 24.1133 17.2265 24.9561 15.7828 25.5425C14.3636 26.1288 12.6874 26.422 10.7543 26.422C9.04145 26.422 7.49988 26.2021 6.12959 25.7624C4.7593 25.3226 3.5603 24.724 2.53259 23.9667C1.50487 23.2093 0.660675 22.342 0 21.3648L2.71611 18.653C3.22996 19.5081 3.8784 20.2776 4.66143 20.9617C5.44445 21.6213 6.34982 22.1344 7.37753 22.5008C8.42972 22.8673 9.59202 23.0505 10.8644 23.0505C11.99 23.0505 12.9566 22.9162 13.7641 22.6474C14.596 22.3787 15.22 21.9878 15.636 21.4747C16.0764 20.9373 16.2966 20.3021 16.2966 19.5691C16.2966 18.8606 16.0519 18.2376 15.5626 17.7002C15.0976 17.1627 14.2167 16.7474 12.9199 16.4542L7.59776 15.2449C6.12959 14.9273 4.91835 14.4753 3.96405 13.8889C3.00974 13.3026 2.30013 12.5941 1.83521 11.7635C1.37029 10.9084 1.13783 9.95558 1.13783 8.90505C1.13783 7.53692 1.50487 6.30316 2.23895 5.20377C2.9975 4.07995 4.08639 3.18823 5.50562 2.52859C6.92485 1.84453 8.61324 1.5025 10.5708 1.5025Z" fill="var(--fill-0, #2D2D3F)"/>
<path d="M43.1861 8.24542L35.0011 16.6008L34.1569 17.1871L28.3944 23.1605L28.3577 18.6896L38.5247 8.24542H43.1861ZM29.7891 0V26.5686H25.8618V0H29.7891ZM35.4783 14.402L43.6266 26.5686H39.0753L32.5419 16.6374L35.4783 14.402Z" fill="var(--fill-0, #2D2D3F)"/>
<path d="M50.7108 5.2221C49.8543 5.2221 49.1937 5.01443 48.7288 4.59911C48.2883 4.15936 48.0681 3.54858 48.0681 2.76679C48.0681 1.98501 48.2883 1.20322 48.7288 0.787893C49.1937 0.372569 49.8543 0.164907 50.7108 0.164907C51.5427 0.164907 52.1789 0.372569 52.6194 0.787893C53.0843 1.20322 53.3168 1.98501 53.3168 2.76679C53.3168 3.54858 53.0843 4.15936 52.6194 4.59911C52.1789 5.01443 51.5427 5.2221 50.7108 5.2221ZM52.6561 8.30039V26.6235H48.7288V8.30039H52.6561Z" fill="var(--fill-0, #2D2D3F)"/>
<path d="M58.2552 32.9908L58.2503 7.18267H61.7372L62.0309 12.3132L61.517 11.6902C61.8106 10.7374 62.2633 9.8945 62.875 9.16158C63.4868 8.42865 64.2453 7.85452 65.1507 7.4392C66.0805 7.02387 67.096 6.81621 68.1971 6.81621C69.6898 6.81621 71.0478 7.19489 72.2713 7.95225C73.4948 8.7096 74.4613 9.79678 75.1709 11.2138C75.8805 12.6063 76.2354 14.3043 76.2354 16.3076C76.2354 18.3109 75.8683 20.0333 75.1342 21.4747C74.4246 22.8917 73.4458 23.9789 72.1979 24.7363C70.9744 25.4936 69.6041 25.8723 68.087 25.8723C66.521 25.8723 65.1874 25.4692 64.0863 24.663C62.9852 23.8323 62.2021 22.7818 61.7372 21.5114L62.1777 20.8884L62.1826 32.9908H58.2552ZM67.2428 22.6841C68.8334 22.6841 70.0691 22.1222 70.95 20.9983C71.8553 19.8745 72.308 18.3232 72.308 16.3443C72.308 14.3654 71.8676 12.814 70.9867 11.6902C70.1058 10.5419 68.8823 9.96779 67.3162 9.96779C66.2885 9.96779 65.3832 10.2365 64.6001 10.774C63.8416 11.2871 63.2421 12.02 62.8016 12.9728C62.3857 13.9012 62.1777 15.025 62.1777 16.3443C62.1777 17.6391 62.3857 18.7629 62.8016 19.7157C63.2176 20.6685 63.8049 21.4014 64.5634 21.9145C65.322 22.4275 66.2151 22.6841 67.2428 22.6841Z" fill="var(--fill-0, #2D2D3F)"/>
<path d="M81.8127 33V7.18267H85.2996L85.5932 12.3132L85.0793 11.6902C85.373 10.7374 85.8256 9.8945 86.4374 9.16158C87.0491 8.42865 87.8077 7.85452 88.713 7.4392C89.6429 7.02387 90.6584 6.81621 91.7595 6.81621C93.2521 6.81621 94.6102 7.19489 95.8336 7.95225C97.0571 8.7096 98.0237 9.79678 98.7333 11.2138C99.4429 12.6063 99.7977 14.3043 99.7977 16.3076C99.7977 18.3109 99.4307 20.0333 98.6966 21.4747C97.987 22.8917 97.0082 23.9789 95.7602 24.7363C94.5368 25.4936 93.1665 25.8723 91.6494 25.8723C90.0833 25.8723 88.7497 25.4692 87.6486 24.663C86.5475 23.8323 85.7645 22.7818 85.2996 21.5114L85.74 20.8884V33H81.8127ZM90.8052 22.6841C92.3957 22.6841 93.6314 22.1222 94.5123 20.9983C95.4177 19.8745 95.8703 18.3232 95.8703 16.3443C95.8703 14.3654 95.4299 12.814 94.549 11.6902C93.6681 10.5419 92.4446 9.96779 90.8786 9.96779C89.8509 9.96779 88.9455 10.2365 88.1625 10.774C87.4039 11.2871 86.8044 12.02 86.364 12.9728C85.948 13.9012 85.74 15.025 85.74 16.3443C85.74 17.6391 85.948 18.7629 86.364 19.7157C86.78 20.6685 87.3672 21.4014 88.1258 21.9145C88.8843 22.4275 89.7775 22.6841 90.8052 22.6841Z" fill="var(--fill-0, #2D2D3F)"/>
<path d="M105.421 26.0555V7.73237H108.761L109.128 11.0305C109.617 9.83342 110.339 8.92948 111.294 8.31871C112.272 7.68351 113.471 7.3659 114.891 7.3659C115.258 7.3659 115.625 7.40255 115.992 7.47584C116.359 7.52471 116.665 7.61022 116.909 7.73237L116.359 11.1771C116.09 11.0794 115.784 11.0061 115.441 10.9572C115.123 10.884 114.683 10.8473 114.12 10.8473C113.361 10.8473 112.615 11.055 111.881 11.4703C111.147 11.8612 110.535 12.4597 110.046 13.266C109.581 14.0722 109.348 15.0983 109.348 16.3443V26.0555H105.421Z" fill="var(--fill-0, #2D2D3F)"/>
</g>
</svg>
